<svg width="180" height="180" viewBox="0 0 180 180" fill="none" xmlns="http://www.w3.org/2000/svg">
<rect width="180" height="180" fill="#171717"/>
<g clip-path="url(#clip0_4591_10304)">
<path d="M132.002 111.669C129.788 107.384 125.547 105.541 125.547 105.541C127.619 92.1474 116.13 90.2517 116.13 90.2517C118.105 81.3814 109.87 78.0397 109.87 78.0397C114.455 73.4282 114.455 65.8981 109.87 61.2955C105.285 56.7016 97.7549 56.7016 93.1699 61.2955L83.6207 70.8711L66.5503 71.6735C66.4356 71.6912 66.3386 71.6735 66.224 71.6912C61.6831 72.2731 57.7858 74.4422 54.7173 77.5194C49.8678 82.3866 48.2807 90.0313 47.0815 96.7237C45.9529 103.178 45.6884 108.363 45.6707 108.742C44.1982 117.947 48.4129 127.011 54.7173 133.333L65.8537 144.496C78.0305 156.708 98.0547 156.858 110.267 144.602L129.859 124.957C134.241 119.402 133.597 116.263 131.993 111.651V111.678H132.002V111.669ZM122.937 119.684L103.768 138.915C94.8099 147.9 80.1731 147.811 71.197 138.809L60.2987 127.884C55.5726 123.149 52.6541 116.298 53.5887 110.54C53.6064 110.382 53.6328 110.241 53.6328 110.108C53.6328 110.108 53.915 104.889 54.9731 98.8663C56.0135 92.8705 58.3325 86.1516 60.2899 84.1942C62.3267 82.1397 64.3459 81.0552 67.0969 80.6937L74.8474 80.0853L65.6509 89.5992C65.6509 89.5992 63.6053 92.6853 65.9066 94.9954C68.2167 97.3056 71.1794 95.1189 71.1794 95.1189L97.9048 68.3141C99.439 66.7799 101.784 66.5065 103.354 68.1025C104.879 69.6455 104.879 72.2378 103.354 73.7721L87.5179 89.6433C87.5179 89.6433 85.5958 92.0857 88.0117 94.5193C88.0117 94.5193 90.4365 97.3321 92.9671 95.1189L101.132 86.9276C102.56 85.5961 104.809 85.746 106.096 87.051C107.692 88.6646 107.683 91.1158 106.555 92.3679L98.3809 100.559C98.3809 100.559 96.0532 102.719 98.6719 105.338C101.299 107.975 103.081 107.278 104.095 106.282L110.902 99.457C112.057 98.1432 114.411 97.9934 115.663 99.2631C117.329 100.947 116.695 103.116 115.619 104.192L108.812 111.017C108.812 111.017 107.004 113.3 109.588 115.875C109.588 115.875 111.889 118.644 114.481 116.695L117.215 113.962C118.749 112.427 121.923 112.031 123.237 113.371C124.727 114.879 124.472 118.176 122.937 119.711V119.675V119.684Z" fill="white"/>
<path d="M76.6903 53.8889C78.6654 55.9433 81.8926 55.9433 83.8853 53.8889C85.8692 51.8345 85.8957 48.5015 83.903 46.447L76.7873 39.0052C74.8123 36.9507 71.5851 36.9507 69.5924 39.0052C67.5908 41.0596 67.5908 44.3926 69.5659 46.447L76.6815 53.8889H76.6903Z" fill="white"/>
<path d="M102.049 48.8544C104.88 48.8544 107.181 46.5442 107.154 43.6962L107.093 32.7715C107.075 29.9147 104.765 27.6045 101.935 27.5869C99.0954 27.5869 96.8029 29.8882 96.8293 32.7539L96.891 43.6786C96.8999 46.5354 99.2188 48.8456 102.049 48.8632V48.8544Z" fill="white"/>
<path d="M125.891 39.0933L118.723 46.4205C116.73 48.4485 116.747 51.7374 118.74 53.7654C120.742 55.7933 123.987 55.7933 125.97 53.7654L133.139 46.4381C135.132 44.4101 135.114 41.1213 133.121 39.0933C131.111 37.0653 127.875 37.0653 125.891 39.0933Z" fill="white"/>
</g>
<defs>
<clipPath id="clip0_4591_10304">
<rect width="89.2582" height="138.688" fill="white" transform="translate(45.3711 15.0308)"/>
</clipPath>
</defs>
</svg>
